<svg xmlns="http://www.w3.org/2000/svg" width="760" height="144" viewBox="0 0 760 144">
  <rect width="100%" height="100%" fill="#0d1117" rx="6"/>
  <rect x="10.00" y="100.00" width="32.64" height="0.50" fill="#2f81f7" rx="1"/><rect x="43.64" y="100.00" width="32.64" height="0.50" fill="#2f81f7" rx="1"/><rect x="77.27" y="100.00" width="32.64" height="0.50" fill="#2f81f7" rx="1"/><rect x="110.91" y="100.00" width="32.64" height="0.50" fill="#2f81f7" rx="1"/><rect x="144.55" y="100.00" width="32.64" height="0.50" fill="#2f81f7" rx="1"/><rect x="178.18" y="100.00" width="32.64" height="0.50" fill="#2f81f7" rx="1"/><rect x="211.82" y="100.00" width="32.64" height="0.50" fill="#2f81f7" rx="1"/><rect x="245.45" y="100.00" width="32.64" height="0.50" fill="#2f81f7" rx="1"/><rect x="279.09" y="10.00" width="32.64" height="90.00" fill="#2f81f7" rx="1"/><rect x="312.73" y="58.46" width="32.64" height="41.54" fill="#2f81f7" rx="1"/><rect x="346.36" y="72.31" width="32.64" height="27.69" fill="#2f81f7" rx="1"/><rect x="380.00" y="58.46" width="32.64" height="41.54" fill="#2f81f7" rx="1"/><rect x="413.64" y="72.31" width="32.64" height="27.69" fill="#2f81f7" rx="1"/><rect x="447.27" y="72.31" width="32.64" height="27.69" fill="#2f81f7" rx="1"/><rect x="480.91" y="72.31" width="32.64" height="27.69" fill="#2f81f7" rx="1"/><rect x="514.55" y="72.31" width="32.64" height="27.69" fill="#2f81f7" rx="1"/><rect x="548.18" y="86.15" width="32.64" height="13.85" fill="#2f81f7" rx="1"/><rect x="581.82" y="79.23" width="32.64" height="20.77" fill="#2f81f7" rx="1"/><rect x="615.45" y="79.23" width="32.64" height="20.77" fill="#2f81f7" rx="1"/><rect x="649.09" y="65.38" width="32.64" height="34.62" fill="#2f81f7" rx="1"/><rect x="682.73" y="93.08" width="32.64" height="6.92" fill="#2f81f7" rx="1"/><rect x="716.36" y="100.00" width="32.64" height="0.50" fill="#2f81f7" rx="1"/>
  <text x="10" y="136" font-family="-apple-system,Segoe UI,Helvetica,Arial,sans-serif" font-size="12" fill="#c9d1d9">Project-Ralph — 59 commits since May 2026 (22 in last 8 weeks)</text>
</svg>