<svg xmlns="http://www.w3.org/2000/svg" width="760" height="144" viewBox="0 0 760 144">
  <rect width="100%" height="100%" fill="#0d1117" rx="6"/>
  <rect x="10.00" y="100.00" width="45.25" height="0.50" fill="#2f81f7" rx="1"/><rect x="56.25" y="100.00" width="45.25" height="0.50" fill="#2f81f7" rx="1"/><rect x="102.50" y="100.00" width="45.25" height="0.50" fill="#2f81f7" rx="1"/><rect x="148.75" y="10.00" width="45.25" height="90.00" fill="#2f81f7" rx="1"/><rect x="195.00" y="76.75" width="45.25" height="23.25" fill="#2f81f7" rx="1"/><rect x="241.25" y="91.66" width="45.25" height="8.34" fill="#2f81f7" rx="1"/><rect x="287.50" y="97.62" width="45.25" height="2.38" fill="#2f81f7" rx="1"/><rect x="333.75" y="88.08" width="45.25" height="11.92" fill="#2f81f7" rx="1"/><rect x="380.00" y="91.06" width="45.25" height="8.94" fill="#2f81f7" rx="1"/><rect x="426.25" y="96.42" width="45.25" height="3.58" fill="#2f81f7" rx="1"/><rect x="472.50" y="94.04" width="45.25" height="5.96" fill="#2f81f7" rx="1"/><rect x="518.75" y="100.00" width="45.25" height="0.50" fill="#2f81f7" rx="1"/><rect x="565.00" y="96.42" width="45.25" height="3.58" fill="#2f81f7" rx="1"/><rect x="611.25" y="97.62" width="45.25" height="2.38" fill="#2f81f7" rx="1"/><rect x="657.50" y="99.40" width="45.25" height="0.60" fill="#2f81f7" rx="1"/><rect x="703.75" y="100.00" width="45.25" height="0.50" fill="#2f81f7" rx="1"/>
  <text x="10" y="136" font-family="-apple-system,Segoe UI,Helvetica,Arial,sans-serif" font-size="12" fill="#c9d1d9">project-sophos — 270 commits since May 2026 (42 in last 8 weeks)</text>
</svg>