<svg xmlns="http://www.w3.org/2000/svg" width="760" height="144" viewBox="0 0 760 144">
  <rect width="100%" height="100%" fill="#0d1117" rx="6"/>
  <rect x="10.00" y="100.00" width="37.95" height="0.50" fill="#2f81f7" rx="1"/><rect x="48.95" y="100.00" width="37.95" height="0.50" fill="#2f81f7" rx="1"/><rect x="87.89" y="100.00" width="37.95" height="0.50" fill="#2f81f7" rx="1"/><rect x="126.84" y="100.00" width="37.95" height="0.50" fill="#2f81f7" rx="1"/><rect x="165.79" y="100.00" width="37.95" height="0.50" fill="#2f81f7" rx="1"/><rect x="204.74" y="100.00" width="37.95" height="0.50" fill="#2f81f7" rx="1"/><rect x="243.68" y="100.00" width="37.95" height="0.50" fill="#2f81f7" rx="1"/><rect x="282.63" y="100.00" width="37.95" height="0.50" fill="#2f81f7" rx="1"/><rect x="321.58" y="10.00" width="37.95" height="90.00" fill="#2f81f7" rx="1"/><rect x="360.53" y="58.46" width="37.95" height="41.54" fill="#2f81f7" rx="1"/><rect x="399.47" y="72.31" width="37.95" height="27.69" fill="#2f81f7" rx="1"/><rect x="438.42" y="58.46" width="37.95" height="41.54" fill="#2f81f7" rx="1"/><rect x="477.37" y="72.31" width="37.95" height="27.69" fill="#2f81f7" rx="1"/><rect x="516.32" y="72.31" width="37.95" height="27.69" fill="#2f81f7" rx="1"/><rect x="555.26" y="72.31" width="37.95" height="27.69" fill="#2f81f7" rx="1"/><rect x="594.21" y="72.31" width="37.95" height="27.69" fill="#2f81f7" rx="1"/><rect x="633.16" y="86.15" width="37.95" height="13.85" fill="#2f81f7" rx="1"/><rect x="672.11" y="79.23" width="37.95" height="20.77" fill="#2f81f7" rx="1"/><rect x="711.05" y="100.00" width="37.95" height="0.50" fill="#2f81f7" rx="1"/>
  <text x="10" y="136" font-family="-apple-system,Segoe UI,Helvetica,Arial,sans-serif" font-size="12" fill="#c9d1d9">Project-Ralph — 50 commits since May 2026 (27 in last 8 weeks)</text>
</svg>