<svg xmlns="http://www.w3.org/2000/svg" width="760" height="144" viewBox="0 0 760 144">
  <rect width="100%" height="100%" fill="#0d1117" rx="6"/>
  <rect x="10.00" y="100.00" width="31.17" height="0.50" fill="#2f81f7" rx="1"/><rect x="42.17" y="100.00" width="31.17" height="0.50" fill="#2f81f7" rx="1"/><rect x="74.35" y="100.00" width="31.17" height="0.50" fill="#2f81f7" rx="1"/><rect x="106.52" y="100.00" width="31.17" height="0.50" fill="#2f81f7" rx="1"/><rect x="138.70" y="100.00" width="31.17" height="0.50" fill="#2f81f7" rx="1"/><rect x="170.87" y="100.00" width="31.17" height="0.50" fill="#2f81f7" rx="1"/><rect x="203.04" y="100.00" width="31.17" height="0.50" fill="#2f81f7" rx="1"/><rect x="235.22" y="100.00" width="31.17" height="0.50" fill="#2f81f7" rx="1"/><rect x="267.39" y="10.00" width="31.17" height="90.00" fill="#2f81f7" rx="1"/><rect x="299.57" y="58.46" width="31.17" height="41.54" fill="#2f81f7" rx="1"/><rect x="331.74" y="72.31" width="31.17" height="27.69" fill="#2f81f7" rx="1"/><rect x="363.91" y="58.46" width="31.17" height="41.54" fill="#2f81f7" rx="1"/><rect x="396.09" y="72.31" width="31.17" height="27.69" fill="#2f81f7" rx="1"/><rect x="428.26" y="72.31" width="31.17" height="27.69" fill="#2f81f7" rx="1"/><rect x="460.43" y="72.31" width="31.17" height="27.69" fill="#2f81f7" rx="1"/><rect x="492.61" y="72.31" width="31.17" height="27.69" fill="#2f81f7" rx="1"/><rect x="524.78" y="86.15" width="31.17" height="13.85" fill="#2f81f7" rx="1"/><rect x="556.96" y="79.23" width="31.17" height="20.77" fill="#2f81f7" rx="1"/><rect x="589.13" y="79.23" width="31.17" height="20.77" fill="#2f81f7" rx="1"/><rect x="621.30" y="65.38" width="31.17" height="34.62" fill="#2f81f7" rx="1"/><rect x="653.48" y="93.08" width="31.17" height="6.92" fill="#2f81f7" rx="1"/><rect x="685.65" y="93.08" width="31.17" height="6.92" fill="#2f81f7" rx="1"/><rect x="717.83" y="100.00" width="31.17" height="0.50" fill="#2f81f7" rx="1"/>
  <text x="10" y="136" font-family="-apple-system,Segoe UI,Helvetica,Arial,sans-serif" font-size="12" fill="#c9d1d9">Project-Ralph — 60 commits since May 2026 (19 in last 8 weeks)</text>
</svg>