<svg xmlns="http://www.w3.org/2000/svg" width="760" height="144" viewBox="0 0 760 144">
  <rect width="100%" height="100%" fill="#0d1117" rx="6"/>
  <rect x="10.00" y="100.00" width="42.53" height="0.50" fill="#2f81f7" rx="1"/><rect x="53.53" y="100.00" width="42.53" height="0.50" fill="#2f81f7" rx="1"/><rect x="97.06" y="100.00" width="42.53" height="0.50" fill="#2f81f7" rx="1"/><rect x="140.59" y="100.00" width="42.53" height="0.50" fill="#2f81f7" rx="1"/><rect x="184.12" y="100.00" width="42.53" height="0.50" fill="#2f81f7" rx="1"/><rect x="227.65" y="100.00" width="42.53" height="0.50" fill="#2f81f7" rx="1"/><rect x="271.18" y="100.00" width="42.53" height="0.50" fill="#2f81f7" rx="1"/><rect x="314.71" y="100.00" width="42.53" height="0.50" fill="#2f81f7" rx="1"/><rect x="358.24" y="10.00" width="42.53" height="90.00" fill="#2f81f7" rx="1"/><rect x="401.76" y="59.09" width="42.53" height="40.91" fill="#2f81f7" rx="1"/><rect x="445.29" y="75.45" width="42.53" height="24.55" fill="#2f81f7" rx="1"/><rect x="488.82" y="67.27" width="42.53" height="32.73" fill="#2f81f7" rx="1"/><rect x="532.35" y="100.00" width="42.53" height="0.50" fill="#2f81f7" rx="1"/><rect x="575.88" y="100.00" width="42.53" height="0.50" fill="#2f81f7" rx="1"/><rect x="619.41" y="100.00" width="42.53" height="0.50" fill="#2f81f7" rx="1"/><rect x="662.94" y="100.00" width="42.53" height="0.50" fill="#2f81f7" rx="1"/><rect x="706.47" y="100.00" width="42.53" height="0.50" fill="#2f81f7" rx="1"/>
  <text x="10" y="136" font-family="-apple-system,Segoe UI,Helvetica,Arial,sans-serif" font-size="12" fill="#c9d1d9">Website-TheJob — 23 commits since May 2026 (12 in last 8 weeks)</text>
</svg>