<svg xmlns="http://www.w3.org/2000/svg" width="760" height="144" viewBox="0 0 760 144">
  <rect width="100%" height="100%" fill="#0d1117" rx="6"/>
  <rect x="10.00" y="100.00" width="40.11" height="0.50" fill="#2f81f7" rx="1"/><rect x="51.11" y="100.00" width="40.11" height="0.50" fill="#2f81f7" rx="1"/><rect x="92.22" y="100.00" width="40.11" height="0.50" fill="#2f81f7" rx="1"/><rect x="133.33" y="10.00" width="40.11" height="90.00" fill="#2f81f7" rx="1"/><rect x="174.44" y="76.75" width="40.11" height="23.25" fill="#2f81f7" rx="1"/><rect x="215.56" y="91.66" width="40.11" height="8.34" fill="#2f81f7" rx="1"/><rect x="256.67" y="97.62" width="40.11" height="2.38" fill="#2f81f7" rx="1"/><rect x="297.78" y="88.08" width="40.11" height="11.92" fill="#2f81f7" rx="1"/><rect x="338.89" y="91.06" width="40.11" height="8.94" fill="#2f81f7" rx="1"/><rect x="380.00" y="96.42" width="40.11" height="3.58" fill="#2f81f7" rx="1"/><rect x="421.11" y="94.04" width="40.11" height="5.96" fill="#2f81f7" rx="1"/><rect x="462.22" y="100.00" width="40.11" height="0.50" fill="#2f81f7" rx="1"/><rect x="503.33" y="96.42" width="40.11" height="3.58" fill="#2f81f7" rx="1"/><rect x="544.44" y="97.62" width="40.11" height="2.38" fill="#2f81f7" rx="1"/><rect x="585.56" y="99.40" width="40.11" height="0.60" fill="#2f81f7" rx="1"/><rect x="626.67" y="99.40" width="40.11" height="0.60" fill="#2f81f7" rx="1"/><rect x="667.78" y="100.00" width="40.11" height="0.50" fill="#2f81f7" rx="1"/><rect x="708.89" y="100.00" width="40.11" height="0.50" fill="#2f81f7" rx="1"/>
  <text x="10" y="136" font-family="-apple-system,Segoe UI,Helvetica,Arial,sans-serif" font-size="12" fill="#c9d1d9">project-sophos — 271 commits since May 2026 (22 in last 8 weeks)</text>
</svg>