<svg xmlns="http://www.w3.org/2000/svg" width="760" height="144" viewBox="0 0 760 144">
  <rect width="100%" height="100%" fill="#0d1117" rx="6"/>
  <rect x="10.00" y="100.00" width="51.86" height="0.50" fill="#2f81f7" rx="1"/><rect x="62.86" y="100.00" width="51.86" height="0.50" fill="#2f81f7" rx="1"/><rect x="115.71" y="10.00" width="51.86" height="90.00" fill="#2f81f7" rx="1"/><rect x="168.57" y="57.09" width="51.86" height="42.91" fill="#2f81f7" rx="1"/><rect x="221.43" y="68.60" width="51.86" height="31.40" fill="#2f81f7" rx="1"/><rect x="274.29" y="75.93" width="51.86" height="24.07" fill="#2f81f7" rx="1"/><rect x="327.14" y="71.74" width="51.86" height="28.26" fill="#2f81f7" rx="1"/><rect x="380.00" y="73.84" width="51.86" height="26.16" fill="#2f81f7" rx="1"/><rect x="432.86" y="75.93" width="51.86" height="24.07" fill="#2f81f7" rx="1"/><rect x="485.71" y="100.00" width="51.86" height="0.50" fill="#2f81f7" rx="1"/><rect x="538.57" y="72.79" width="51.86" height="27.21" fill="#2f81f7" rx="1"/><rect x="591.43" y="96.86" width="51.86" height="3.14" fill="#2f81f7" rx="1"/><rect x="644.29" y="56.05" width="51.86" height="43.95" fill="#2f81f7" rx="1"/><rect x="697.14" y="89.53" width="51.86" height="10.47" fill="#2f81f7" rx="1"/>
  <text x="10" y="136" font-family="-apple-system,Segoe UI,Helvetica,Arial,sans-serif" font-size="12" fill="#c9d1d9">project-mercury — 336 commits since May 2026 (156 in last 8 weeks)</text>
</svg>