<svg xmlns="http://www.w3.org/2000/svg" width="760" height="144" viewBox="0 0 760 144">
  <rect width="100%" height="100%" fill="#0d1117" rx="6"/>
  <rect x="10.00" y="100.00" width="31.17" height="0.50" fill="#2f81f7" rx="1"/><rect x="42.17" y="100.00" width="31.17" height="0.50" fill="#2f81f7" rx="1"/><rect x="74.35" y="10.00" width="31.17" height="90.00" fill="#2f81f7" rx="1"/><rect x="106.52" y="57.09" width="31.17" height="42.91" fill="#2f81f7" rx="1"/><rect x="138.70" y="68.60" width="31.17" height="31.40" fill="#2f81f7" rx="1"/><rect x="170.87" y="75.93" width="31.17" height="24.07" fill="#2f81f7" rx="1"/><rect x="203.04" y="71.74" width="31.17" height="28.26" fill="#2f81f7" rx="1"/><rect x="235.22" y="73.84" width="31.17" height="26.16" fill="#2f81f7" rx="1"/><rect x="267.39" y="75.93" width="31.17" height="24.07" fill="#2f81f7" rx="1"/><rect x="299.57" y="100.00" width="31.17" height="0.50" fill="#2f81f7" rx="1"/><rect x="331.74" y="72.79" width="31.17" height="27.21" fill="#2f81f7" rx="1"/><rect x="363.91" y="96.86" width="31.17" height="3.14" fill="#2f81f7" rx="1"/><rect x="396.09" y="56.05" width="31.17" height="43.95" fill="#2f81f7" rx="1"/><rect x="428.26" y="89.53" width="31.17" height="10.47" fill="#2f81f7" rx="1"/><rect x="460.43" y="88.49" width="31.17" height="11.51" fill="#2f81f7" rx="1"/><rect x="492.61" y="80.12" width="31.17" height="19.88" fill="#2f81f7" rx="1"/><rect x="524.78" y="100.00" width="31.17" height="0.50" fill="#2f81f7" rx="1"/><rect x="556.96" y="78.02" width="31.17" height="21.98" fill="#2f81f7" rx="1"/><rect x="589.13" y="95.81" width="31.17" height="4.19" fill="#2f81f7" rx="1"/><rect x="621.30" y="92.67" width="31.17" height="7.33" fill="#2f81f7" rx="1"/><rect x="653.48" y="66.51" width="31.17" height="33.49" fill="#2f81f7" rx="1"/><rect x="685.65" y="100.00" width="31.17" height="0.50" fill="#2f81f7" rx="1"/><rect x="717.83" y="100.00" width="31.17" height="0.50" fill="#2f81f7" rx="1"/>
  <text x="10" y="136" font-family="-apple-system,Segoe UI,Helvetica,Arial,sans-serif" font-size="12" fill="#c9d1d9">project-mercury — 430 commits since May 2026 (83 in last 8 weeks)</text>
</svg>