<svg xmlns="http://www.w3.org/2000/svg" width="760" height="144" viewBox="0 0 760 144">
  <rect width="100%" height="100%" fill="#0d1117" rx="6"/>
  <rect x="10.00" y="100.00" width="36.00" height="0.50" fill="#2f81f7" rx="1"/><rect x="47.00" y="100.00" width="36.00" height="0.50" fill="#2f81f7" rx="1"/><rect x="84.00" y="10.00" width="36.00" height="90.00" fill="#2f81f7" rx="1"/><rect x="121.00" y="57.09" width="36.00" height="42.91" fill="#2f81f7" rx="1"/><rect x="158.00" y="68.60" width="36.00" height="31.40" fill="#2f81f7" rx="1"/><rect x="195.00" y="75.93" width="36.00" height="24.07" fill="#2f81f7" rx="1"/><rect x="232.00" y="71.74" width="36.00" height="28.26" fill="#2f81f7" rx="1"/><rect x="269.00" y="73.84" width="36.00" height="26.16" fill="#2f81f7" rx="1"/><rect x="306.00" y="75.93" width="36.00" height="24.07" fill="#2f81f7" rx="1"/><rect x="343.00" y="100.00" width="36.00" height="0.50" fill="#2f81f7" rx="1"/><rect x="380.00" y="72.79" width="36.00" height="27.21" fill="#2f81f7" rx="1"/><rect x="417.00" y="96.86" width="36.00" height="3.14" fill="#2f81f7" rx="1"/><rect x="454.00" y="56.05" width="36.00" height="43.95" fill="#2f81f7" rx="1"/><rect x="491.00" y="89.53" width="36.00" height="10.47" fill="#2f81f7" rx="1"/><rect x="528.00" y="88.49" width="36.00" height="11.51" fill="#2f81f7" rx="1"/><rect x="565.00" y="80.12" width="36.00" height="19.88" fill="#2f81f7" rx="1"/><rect x="602.00" y="100.00" width="36.00" height="0.50" fill="#2f81f7" rx="1"/><rect x="639.00" y="78.02" width="36.00" height="21.98" fill="#2f81f7" rx="1"/><rect x="676.00" y="95.81" width="36.00" height="4.19" fill="#2f81f7" rx="1"/><rect x="713.00" y="100.00" width="36.00" height="0.50" fill="#2f81f7" rx="1"/>
  <text x="10" y="136" font-family="-apple-system,Segoe UI,Helvetica,Arial,sans-serif" font-size="12" fill="#c9d1d9">project-mercury — 391 commits since May 2026 (107 in last 8 weeks)</text>
</svg>