<svg xmlns="http://www.w3.org/2000/svg" width="760" height="144" viewBox="0 0 760 144">
  <rect width="100%" height="100%" fill="#0d1117" rx="6"/>
  <rect x="10.00" y="100.00" width="42.53" height="0.50" fill="#2f81f7" rx="1"/><rect x="53.53" y="100.00" width="42.53" height="0.50" fill="#2f81f7" rx="1"/><rect x="97.06" y="100.00" width="42.53" height="0.50" fill="#2f81f7" rx="1"/><rect x="140.59" y="100.00" width="42.53" height="0.50" fill="#2f81f7" rx="1"/><rect x="184.12" y="100.00" width="42.53" height="0.50" fill="#2f81f7" rx="1"/><rect x="227.65" y="100.00" width="42.53" height="0.50" fill="#2f81f7" rx="1"/><rect x="271.18" y="100.00" width="42.53" height="0.50" fill="#2f81f7" rx="1"/><rect x="314.71" y="100.00" width="42.53" height="0.50" fill="#2f81f7" rx="1"/><rect x="358.24" y="10.00" width="42.53" height="90.00" fill="#2f81f7" rx="1"/><rect x="401.76" y="58.46" width="42.53" height="41.54" fill="#2f81f7" rx="1"/><rect x="445.29" y="72.31" width="42.53" height="27.69" fill="#2f81f7" rx="1"/><rect x="488.82" y="58.46" width="42.53" height="41.54" fill="#2f81f7" rx="1"/><rect x="532.35" y="72.31" width="42.53" height="27.69" fill="#2f81f7" rx="1"/><rect x="575.88" y="72.31" width="42.53" height="27.69" fill="#2f81f7" rx="1"/><rect x="619.41" y="72.31" width="42.53" height="27.69" fill="#2f81f7" rx="1"/><rect x="662.94" y="79.23" width="42.53" height="20.77" fill="#2f81f7" rx="1"/><rect x="706.47" y="100.00" width="42.53" height="0.50" fill="#2f81f7" rx="1"/>
  <text x="10" y="136" font-family="-apple-system,Segoe UI,Helvetica,Arial,sans-serif" font-size="12" fill="#c9d1d9">Project-Ralph — 44 commits since May 2026 (31 in last 8 weeks)</text>
</svg>